<svg width="168" height="168" viewBox="0 0 168 168" fill="none" xmlns="http://www.w3.org/2000/svg">
<g clip-path="url(#clip0_78_128)">
<path fill-rule="evenodd" clip-rule="evenodd" d="M133.258 121.971L108.36 97.0988C126.446 73.4606 124.753 39.5325 103.123 17.9025C79.5769 -5.63063 41.4094 -5.63063 17.85 17.9025C-5.68309 41.4487 -5.68309 79.6294 17.85 103.162C39.48 124.779 73.4213 126.499 97.0594 108.399L121.958 133.284L133.258 121.971ZM26.8275 26.8537C8.24254 45.4387 8.24254 75.6 26.8275 94.1981C45.4125 112.783 75.5344 112.783 94.1588 94.1981C112.744 75.5737 112.744 45.4387 94.1588 26.8537C75.5475 8.26875 45.4257 8.25562 26.8275 26.8537Z" fill="#78A3AD"/>
<path d="M166.071 145.071L132.562 111.484C124.031 102.953 103.451 124.307 111.602 132.444L145.11 166.031C148.575 169.483 156.082 167.593 161.844 161.792C167.632 156.017 169.522 148.523 166.071 145.071Z" fill="#F79329"/>
<mask id="mask0_78_128" style="mask-type:luminance" maskUnits="userSpaceOnUse" x="109" y="109" width="59" height="59">
<path d="M166.071 145.071L132.562 111.484C124.031 102.953 103.451 124.307 111.602 132.444L145.11 166.031C148.575 169.483 156.082 167.593 161.844 161.792C167.632 156.017 169.522 148.523 166.071 145.071Z" fill="white"/>
</mask>
<g mask="url(#mask0_78_128)">
<path d="M145.989 165.073C146.226 162.396 147.971 159.232 149.1 157.447C152.473 152.106 156.712 147.682 163.039 146.002C169.47 144.283 170.113 149.126 168.577 154.035C166.727 159.954 163.039 164.404 157.605 167.514C156.332 168.249 154.639 169.286 153.169 169.509C149.572 170.021 145.609 169.562 145.989 165.073Z" fill="#855C52"/>
</g>
</g>
<defs>
<clipPath id="clip0_78_128">
<rect width="168" height="168" fill="white"/>
</clipPath>
</defs>
</svg>
