<svg width="144" height="43" viewBox="0 0 144 43" fill="none" xmlns="http://www.w3.org/2000/svg">
<path d="M0.661222 0.454545H3.88565L8.20384 10.9943H8.37429L12.6925 0.454545H15.9169V15H13.3885V5.0071H13.2536L9.23366 14.9574H7.34446L3.32457 4.9858H3.18963V15H0.661222V0.454545ZM31.7834 7.72727C31.7834 9.29451 31.4898 10.6368 30.9027 11.7543C30.3203 12.867 29.5249 13.7192 28.5163 14.3111C27.5125 14.9029 26.3738 15.1989 25.1001 15.1989C23.8265 15.1989 22.6854 14.9029 21.6768 14.3111C20.6731 13.7145 19.8776 12.8598 19.2905 11.7472C18.7081 10.6297 18.4169 9.28977 18.4169 7.72727C18.4169 6.16004 18.7081 4.82008 19.2905 3.70739C19.8776 2.58996 20.6731 1.73532 21.6768 1.14347C22.6854 0.551609 23.8265 0.255681 25.1001 0.255681C26.3738 0.255681 27.5125 0.551609 28.5163 1.14347C29.5249 1.73532 30.3203 2.58996 30.9027 3.70739C31.4898 4.82008 31.7834 6.16004 31.7834 7.72727ZM29.1342 7.72727C29.1342 6.62405 28.9614 5.69366 28.6158 4.93608C28.2749 4.17377 27.8014 3.59848 27.1953 3.21023C26.5893 2.81723 25.8909 2.62074 25.1001 2.62074C24.3094 2.62074 23.611 2.81723 23.005 3.21023C22.3989 3.59848 21.9231 4.17377 21.5774 4.93608C21.2365 5.69366 21.0661 6.62405 21.0661 7.72727C21.0661 8.83049 21.2365 9.76326 21.5774 10.5256C21.9231 11.2831 22.3989 11.8584 23.005 12.2514C23.611 12.6397 24.3094 12.8338 25.1001 12.8338C25.8909 12.8338 26.5893 12.6397 27.1953 12.2514C27.8014 11.8584 28.2749 11.2831 28.6158 10.5256C28.9614 9.76326 29.1342 8.83049 29.1342 7.72727ZM46.7248 5.36222H44.0685C43.9928 4.92661 43.8531 4.54072 43.6495 4.20455C43.4459 3.86364 43.1926 3.57481 42.8896 3.33807C42.5865 3.10133 42.2409 2.92377 41.8526 2.8054C41.4691 2.68229 41.0548 2.62074 40.6097 2.62074C39.819 2.62074 39.1183 2.8196 38.5075 3.21733C37.8967 3.61032 37.4184 4.18797 37.0728 4.95028C36.7272 5.70786 36.5543 6.63352 36.5543 7.72727C36.5543 8.83996 36.7272 9.77746 37.0728 10.5398C37.4232 11.2973 37.9014 11.8703 38.5075 12.2585C39.1183 12.642 39.8166 12.8338 40.6026 12.8338C41.0382 12.8338 41.4454 12.777 41.8242 12.6634C42.2077 12.545 42.551 12.3722 42.854 12.1449C43.1618 11.9176 43.4199 11.6383 43.6282 11.3068C43.8413 10.9754 43.988 10.5966 44.0685 10.1705L46.7248 10.1847C46.6254 10.8759 46.4099 11.5246 46.0785 12.1307C45.7518 12.7367 45.3233 13.2718 44.793 13.7358C44.2627 14.1951 43.6424 14.5549 42.9322 14.8153C42.2219 15.071 41.4336 15.1989 40.5671 15.1989C39.2887 15.1989 38.1476 14.9029 37.1438 14.3111C36.14 13.7192 35.3493 12.8646 34.7717 11.7472C34.194 10.6297 33.9052 9.28977 33.9052 7.72727C33.9052 6.16004 34.1964 4.82008 34.7788 3.70739C35.3612 2.58996 36.1542 1.73532 37.158 1.14347C38.1618 0.551609 39.2982 0.255681 40.5671 0.255681C41.3768 0.255681 42.1296 0.369318 42.8256 0.59659C43.5217 0.823863 44.1419 1.15767 44.6864 1.59801C45.2309 2.03362 45.6784 2.56866 46.0288 3.20312C46.3839 3.83286 46.6159 4.55256 46.7248 5.36222ZM57.8523 15L53.0653 8.64347H51.7727V15H49.1378V0.454545H51.7727V6.43466H52.4332L57.6037 0.454545H60.8494L55.1037 7.08807L61.098 15H57.8523ZM75.1037 7.72727C75.1037 9.29451 74.8101 10.6368 74.223 11.7543C73.6406 12.867 72.8452 13.7192 71.8366 14.3111C70.8329 14.9029 69.6941 15.1989 68.4205 15.1989C67.1468 15.1989 66.0057 14.9029 64.9972 14.3111C63.9934 13.7145 63.1979 12.8598 62.6108 11.7472C62.0284 10.6297 61.7372 9.28977 61.7372 7.72727C61.7372 6.16004 62.0284 4.82008 62.6108 3.70739C63.1979 2.58996 63.9934 1.73532 64.9972 1.14347C66.0057 0.551609 67.1468 0.255681 68.4205 0.255681C69.6941 0.255681 70.8329 0.551609 71.8366 1.14347C72.8452 1.73532 73.6406 2.58996 74.223 3.70739C74.8101 4.82008 75.1037 6.16004 75.1037 7.72727ZM72.4545 7.72727C72.4545 6.62405 72.2817 5.69366 71.9361 4.93608C71.5952 4.17377 71.1217 3.59848 70.5156 3.21023C69.9096 2.81723 69.2112 2.62074 68.4205 2.62074C67.6297 2.62074 66.9313 2.81723 66.3253 3.21023C65.7192 3.59848 65.2434 4.17377 64.8977 4.93608C64.5568 5.69366 64.3864 6.62405 64.3864 7.72727C64.3864 8.83049 64.5568 9.76326 64.8977 10.5256C65.2434 11.2831 65.7192 11.8584 66.3253 12.2514C66.9313 12.6397 67.6297 12.8338 68.4205 12.8338C69.2112 12.8338 69.9096 12.6397 70.5156 12.2514C71.1217 11.8584 71.5952 11.2831 71.9361 10.5256C72.2817 9.76326 72.4545 8.83049 72.4545 7.72727ZM77.5948 15V0.454545H83.163C84.2141 0.454545 85.0877 0.620265 85.7837 0.951704C86.4845 1.27841 87.0077 1.72585 87.3533 2.29403C87.7037 2.86222 87.8789 3.50616 87.8789 4.22585C87.8789 4.81771 87.7653 5.32434 87.538 5.74574C87.3107 6.1624 87.0053 6.50095 86.6218 6.76136C86.2383 7.02178 85.8098 7.20881 85.3363 7.32244V7.46449C85.8524 7.4929 86.3472 7.65151 86.8207 7.94034C87.2989 8.22443 87.6895 8.62689 87.9925 9.14773C88.2956 9.66856 88.4471 10.2983 88.4471 11.0369C88.4471 11.7898 88.2648 12.4669 87.9002 13.0682C87.5356 13.6648 86.9864 14.1359 86.2525 14.4815C85.5186 14.8272 84.5953 15 83.4826 15H77.5948ZM80.2298 12.7983H83.0636C84.02 12.7983 84.7089 12.616 85.1303 12.2514C85.5565 11.8821 85.7695 11.4086 85.7695 10.831C85.7695 10.4001 85.663 10.0118 85.4499 9.66619C85.2369 9.31581 84.9338 9.04119 84.5408 8.84233C84.1478 8.63873 83.6791 8.53693 83.1346 8.53693H80.2298V12.7983ZM80.2298 6.64062H82.8363C83.2908 6.64062 83.7004 6.55777 84.065 6.39205C84.4296 6.22159 84.716 5.98248 84.9244 5.67472C85.1374 5.36222 85.244 4.9929 85.244 4.56676C85.244 4.00331 85.0451 3.5393 84.6474 3.17472C84.2544 2.81013 83.6696 2.62784 82.8931 2.62784H80.2298V6.64062ZM103.19 5.36222H100.533C100.458 4.92661 100.318 4.54072 100.114 4.20455C99.9107 3.86364 99.6574 3.57481 99.3544 3.33807C99.0514 3.10133 98.7057 2.92377 98.3175 2.8054C97.9339 2.68229 97.5196 2.62074 97.0746 2.62074C96.2839 2.62074 95.5831 2.8196 94.9723 3.21733C94.3615 3.61032 93.8833 4.18797 93.5376 4.95028C93.192 5.70786 93.0192 6.63352 93.0192 7.72727C93.0192 8.83996 93.192 9.77746 93.5376 10.5398C93.888 11.2973 94.3662 11.8703 94.9723 12.2585C95.5831 12.642 96.2815 12.8338 97.0675 12.8338C97.5031 12.8338 97.9103 12.777 98.2891 12.6634C98.6726 12.545 99.0159 12.3722 99.3189 12.1449C99.6267 11.9176 99.8847 11.6383 100.093 11.3068C100.306 10.9754 100.453 10.5966 100.533 10.1705L103.19 10.1847C103.09 10.8759 102.875 11.5246 102.543 12.1307C102.217 12.7367 101.788 13.2718 101.258 13.7358C100.728 14.1951 100.107 14.5549 99.397 14.8153C98.6868 15.071 97.8984 15.1989 97.032 15.1989C95.7536 15.1989 94.6125 14.9029 93.6087 14.3111C92.6049 13.7192 91.8142 12.8646 91.2365 11.7472C90.6589 10.6297 90.37 9.28977 90.37 7.72727C90.37 6.16004 90.6612 4.82008 91.2436 3.70739C91.826 2.58996 92.6191 1.73532 93.6229 1.14347C94.6267 0.551609 95.763 0.255681 97.032 0.255681C97.8416 0.255681 98.5945 0.369318 99.2905 0.59659C99.9865 0.823863 100.607 1.15767 101.151 1.59801C101.696 2.03362 102.143 2.56866 102.494 3.20312C102.849 3.83286 103.081 4.55256 103.19 5.36222ZM114.317 15L109.53 8.64347H108.238V15H105.603V0.454545H108.238V6.43466H108.898L114.069 0.454545H117.314L111.569 7.08807L117.563 15H114.317ZM131.569 7.72727C131.569 9.29451 131.275 10.6368 130.688 11.7543C130.105 12.867 129.31 13.7192 128.301 14.3111C127.298 14.9029 126.159 15.1989 124.885 15.1989C123.612 15.1989 122.471 14.9029 121.462 14.3111C120.458 13.7145 119.663 12.8598 119.076 11.7472C118.493 10.6297 118.202 9.28977 118.202 7.72727C118.202 6.16004 118.493 4.82008 119.076 3.70739C119.663 2.58996 120.458 1.73532 121.462 1.14347C122.471 0.551609 123.612 0.255681 124.885 0.255681C126.159 0.255681 127.298 0.551609 128.301 1.14347C129.31 1.73532 130.105 2.58996 130.688 3.70739C131.275 4.82008 131.569 6.16004 131.569 7.72727ZM128.919 7.72727C128.919 6.62405 128.747 5.69366 128.401 4.93608C128.06 4.17377 127.587 3.59848 126.98 3.21023C126.374 2.81723 125.676 2.62074 124.885 2.62074C124.095 2.62074 123.396 2.81723 122.79 3.21023C122.184 3.59848 121.708 4.17377 121.363 4.93608C121.022 5.69366 120.851 6.62405 120.851 7.72727C120.851 8.83049 121.022 9.76326 121.363 10.5256C121.708 11.2831 122.184 11.8584 122.79 12.2514C123.396 12.6397 124.095 12.8338 124.885 12.8338C125.676 12.8338 126.374 12.6397 126.98 12.2514C127.587 11.8584 128.06 11.2831 128.401 10.5256C128.747 9.76326 128.919 8.83049 128.919 7.72727ZM134.06 15V0.454545H143.52V2.66335H136.695V6.61222H143.03V8.82102H136.695V12.7912H143.577V15H134.06ZM3.11506 42.5085V36.848H4.08807C4.41477 36.5876 4.72017 36.2206 5.00426 35.7472C5.28835 35.2737 5.52983 34.625 5.72869 33.8011C5.92756 32.9773 6.06487 31.9119 6.14062 30.6051L6.52415 24.4545H15.821V36.848H17.4403V42.4943H14.9119V39H5.64347V42.5085H3.11506ZM7.15625 36.848H13.2926V26.6634H8.89631L8.66903 30.6051C8.60748 31.5947 8.50805 32.4801 8.37074 33.2614C8.23343 34.0426 8.06061 34.7315 7.85227 35.3281C7.64394 35.92 7.41193 36.4266 7.15625 36.848ZM32.5842 31.7273C32.5842 33.2945 32.2906 34.6368 31.7035 35.7543C31.1211 36.867 30.3256 37.7192 29.3171 38.3111C28.3133 38.9029 27.1746 39.1989 25.9009 39.1989C24.6272 39.1989 23.4862 38.9029 22.4776 38.3111C21.4738 37.7145 20.6784 36.8598 20.0913 35.7472C19.5089 34.6297 19.2177 33.2898 19.2177 31.7273C19.2177 30.16 19.5089 28.8201 20.0913 27.7074C20.6784 26.59 21.4738 25.7353 22.4776 25.1435C23.4862 24.5516 24.6272 24.2557 25.9009 24.2557C27.1746 24.2557 28.3133 24.5516 29.3171 25.1435C30.3256 25.7353 31.1211 26.59 31.7035 27.7074C32.2906 28.8201 32.5842 30.16 32.5842 31.7273ZM29.935 31.7273C29.935 30.6241 29.7622 29.6937 29.4165 28.9361C29.0756 28.1738 28.6022 27.5985 27.9961 27.2102C27.39 26.8172 26.6916 26.6207 25.9009 26.6207C25.1102 26.6207 24.4118 26.8172 23.8058 27.2102C23.1997 27.5985 22.7238 28.1738 22.3782 28.9361C22.0373 29.6937 21.8668 30.6241 21.8668 31.7273C21.8668 32.8305 22.0373 33.7633 22.3782 34.5256C22.7238 35.2831 23.1997 35.8584 23.8058 36.2514C24.4118 36.6397 25.1102 36.8338 25.9009 36.8338C26.6916 36.8338 27.39 36.6397 27.9961 36.2514C28.6022 35.8584 29.0756 35.2831 29.4165 34.5256C29.7622 33.7633 29.935 32.8305 29.935 31.7273ZM34.1307 39V36.8125L34.5426 36.7912C35.1013 36.758 35.544 36.5568 35.8707 36.1875C36.2022 35.8182 36.446 35.224 36.6023 34.4048C36.7633 33.5857 36.8698 32.4872 36.9219 31.1094L37.1634 24.4545H46.6946V39H44.1165V26.6207H39.6207L39.3935 31.9261C39.3272 33.517 39.152 34.8357 38.8679 35.8821C38.5885 36.9285 38.1293 37.7098 37.4901 38.2259C36.8556 38.742 35.9725 39 34.8409 39H34.1307ZM58.9212 24.4545V26.6634H52.2024V39H49.5675V24.4545H58.9212ZM73.5021 31.7273C73.5021 33.2945 73.2086 34.6368 72.6214 35.7543C72.0391 36.867 71.2436 37.7192 70.2351 38.3111C69.2313 38.9029 68.0926 39.1989 66.8189 39.1989C65.5452 39.1989 64.4041 38.9029 63.3956 38.3111C62.3918 37.7145 61.5964 36.8598 61.0092 35.7472C60.4268 34.6297 60.1357 33.2898 60.1357 31.7273C60.1357 30.16 60.4268 28.8201 61.0092 27.7074C61.5964 26.59 62.3918 25.7353 63.3956 25.1435C64.4041 24.5516 65.5452 24.2557 66.8189 24.2557C68.0926 24.2557 69.2313 24.5516 70.2351 25.1435C71.2436 25.7353 72.0391 26.59 72.6214 27.7074C73.2086 28.8201 73.5021 30.16 73.5021 31.7273ZM70.853 31.7273C70.853 30.6241 70.6802 29.6937 70.3345 28.9361C69.9936 28.1738 69.5201 27.5985 68.9141 27.2102C68.308 26.8172 67.6096 26.6207 66.8189 26.6207C66.0282 26.6207 65.3298 26.8172 64.7237 27.2102C64.1177 27.5985 63.6418 28.1738 63.2962 28.9361C62.9553 29.6937 62.7848 30.6241 62.7848 31.7273C62.7848 32.8305 62.9553 33.7633 63.2962 34.5256C63.6418 35.2831 64.1177 35.8584 64.7237 36.2514C65.3298 36.6397 66.0282 36.8338 66.8189 36.8338C67.6096 36.8338 68.308 36.6397 68.9141 36.2514C69.5201 35.8584 69.9936 35.2831 70.3345 34.5256C70.6802 33.7633 70.853 32.8305 70.853 31.7273ZM75.0487 39V36.8125L75.4606 36.7912C76.0193 36.758 76.462 36.5568 76.7887 36.1875C77.1201 35.8182 77.364 35.224 77.5202 34.4048C77.6812 33.5857 77.7878 32.4872 77.8398 31.1094L78.0813 24.4545H87.6126V39H85.0344V26.6207H80.5387L80.3114 31.9261C80.2451 33.517 80.07 34.8357 79.7859 35.8821C79.5065 36.9285 79.0472 37.7098 78.408 38.2259C77.7736 38.742 76.8905 39 75.7589 39H75.0487ZM90.4854 39V24.4545H99.9457V26.6634H93.1204V30.6122H99.4556V32.821H93.1204V36.7912H100.002V39H90.4854ZM101.995 26.6634V24.4545H113.6V26.6634H109.104V39H106.49V26.6634H101.995ZM115.837 24.4545H118.451V34.3693H118.586L125.425 24.4545H127.79V39H125.155V29.0923H125.034L118.174 39H115.837V24.4545ZM130.661 39V24.4545H140.121V26.6634H133.296V30.6122H139.631V32.821H133.296V36.7912H140.178V39H130.661Z" fill="black"/>
</svg>
